<mxfile host="app.diagrams.net" modified="2023-03-29T09:45:02.404Z" agent="Mozilla/5.0 (Macintosh; Intel Mac OS X 10_15_7) AppleWebKit/537.36 (KHTML, like Gecko) Chrome/111.0.0.0 Safari/537.36" etag="05frShdC2UAN6lLJIKLl" version="21.1.1" type="device">
  <diagram name="Page-1" id="1B5X5wg8gFjwyHXs4HcD">
    <mxGraphModel dx="1434" dy="738" grid="1" gridSize="10" guides="1" tooltips="1" connect="1" arrows="1" fold="1" page="1" pageScale="1" pageWidth="850" pageHeight="1100" math="0" shadow="0">
      <root>
        <mxCell id="0" />
        <mxCell id="1" parent="0" />
        <mxCell id="17Se1o1GfbrU2LIGd_qw-42" value="" style="group" vertex="1" connectable="0" parent="1">
          <mxGeometry x="80" y="150" width="598.4300000000001" height="303.5" as="geometry" />
        </mxCell>
        <mxCell id="17Se1o1GfbrU2LIGd_qw-1" value="" style="image;aspect=fixed;perimeter=ellipsePerimeter;html=1;align=center;shadow=0;dashed=0;spacingTop=3;image=img/lib/active_directory/databases.svg;" vertex="1" parent="17Se1o1GfbrU2LIGd_qw-42">
          <mxGeometry y="163.5" width="142.86" height="140" as="geometry" />
        </mxCell>
        <mxCell id="17Se1o1GfbrU2LIGd_qw-2" value="" style="sketch=0;outlineConnect=0;fontColor=#232F3E;gradientColor=none;fillColor=#4D27AA;strokeColor=none;dashed=0;verticalLabelPosition=bottom;verticalAlign=top;align=center;html=1;fontSize=12;fontStyle=0;aspect=fixed;pointerEvents=1;shape=mxgraph.aws4.data_exchange_for_apis;" vertex="1" parent="17Se1o1GfbrU2LIGd_qw-42">
          <mxGeometry x="220.43" y="160" width="167.06" height="143.5" as="geometry" />
        </mxCell>
        <mxCell id="17Se1o1GfbrU2LIGd_qw-3" value="Database" style="text;html=1;strokeColor=none;fillColor=none;align=center;verticalAlign=middle;whiteSpace=wrap;rounded=0;" vertex="1" parent="17Se1o1GfbrU2LIGd_qw-42">
          <mxGeometry x="41.43000000000001" y="130" width="60" height="30" as="geometry" />
        </mxCell>
        <mxCell id="17Se1o1GfbrU2LIGd_qw-4" value="API" style="text;html=1;strokeColor=none;fillColor=none;align=center;verticalAlign=middle;whiteSpace=wrap;rounded=0;" vertex="1" parent="17Se1o1GfbrU2LIGd_qw-42">
          <mxGeometry x="280.43" y="130" width="60" height="30" as="geometry" />
        </mxCell>
        <mxCell id="17Se1o1GfbrU2LIGd_qw-10" value="" style="outlineConnect=0;dashed=0;verticalLabelPosition=bottom;verticalAlign=top;align=center;html=1;shape=mxgraph.aws3.android;fillColor=#8CC64F;gradientColor=none;" vertex="1" parent="17Se1o1GfbrU2LIGd_qw-42">
          <mxGeometry x="500.43" y="179" width="90" height="101" as="geometry" />
        </mxCell>
        <mxCell id="17Se1o1GfbrU2LIGd_qw-25" value="" style="group" vertex="1" connectable="0" parent="17Se1o1GfbrU2LIGd_qw-42">
          <mxGeometry x="150.43" y="202" width="70" height="38" as="geometry" />
        </mxCell>
        <mxCell id="17Se1o1GfbrU2LIGd_qw-22" value="" style="endArrow=classic;html=1;rounded=0;entryX=-0.072;entryY=0.293;entryDx=0;entryDy=0;entryPerimeter=0;" edge="1" parent="17Se1o1GfbrU2LIGd_qw-25" target="17Se1o1GfbrU2LIGd_qw-2">
          <mxGeometry width="50" height="50" relative="1" as="geometry">
            <mxPoint as="sourcePoint" />
            <mxPoint x="80" y="158" as="targetPoint" />
          </mxGeometry>
        </mxCell>
        <mxCell id="17Se1o1GfbrU2LIGd_qw-24" value="" style="endArrow=classic;html=1;rounded=0;entryX=-0.072;entryY=0.293;entryDx=0;entryDy=0;entryPerimeter=0;" edge="1" parent="17Se1o1GfbrU2LIGd_qw-25">
          <mxGeometry width="50" height="50" relative="1" as="geometry">
            <mxPoint x="70" y="38" as="sourcePoint" />
            <mxPoint y="38" as="targetPoint" />
          </mxGeometry>
        </mxCell>
        <mxCell id="17Se1o1GfbrU2LIGd_qw-35" value="" style="endArrow=classic;html=1;rounded=0;" edge="1" parent="17Se1o1GfbrU2LIGd_qw-42">
          <mxGeometry width="50" height="50" relative="1" as="geometry">
            <mxPoint x="390.43" y="210" as="sourcePoint" />
            <mxPoint x="470.43" y="210" as="targetPoint" />
          </mxGeometry>
        </mxCell>
        <mxCell id="17Se1o1GfbrU2LIGd_qw-36" value="" style="endArrow=classic;html=1;rounded=0;" edge="1" parent="17Se1o1GfbrU2LIGd_qw-42">
          <mxGeometry width="50" height="50" relative="1" as="geometry">
            <mxPoint x="480.43" y="240" as="sourcePoint" />
            <mxPoint x="400.43" y="240" as="targetPoint" />
          </mxGeometry>
        </mxCell>
        <mxCell id="17Se1o1GfbrU2LIGd_qw-37" value="Node.js Application" style="text;html=1;strokeColor=none;fillColor=none;align=center;verticalAlign=middle;whiteSpace=wrap;rounded=0;" vertex="1" parent="17Se1o1GfbrU2LIGd_qw-42">
          <mxGeometry x="510.43" y="140" width="60" height="30" as="geometry" />
        </mxCell>
        <mxCell id="17Se1o1GfbrU2LIGd_qw-38" value="" style="sketch=0;outlineConnect=0;fontColor=#232F3E;gradientColor=none;fillColor=#232F3D;strokeColor=none;dashed=0;verticalLabelPosition=bottom;verticalAlign=top;align=center;html=1;fontSize=12;fontStyle=0;aspect=fixed;pointerEvents=1;shape=mxgraph.aws4.client;" vertex="1" parent="17Se1o1GfbrU2LIGd_qw-42">
          <mxGeometry x="520.4300000000001" y="30" width="78" height="76" as="geometry" />
        </mxCell>
        <mxCell id="17Se1o1GfbrU2LIGd_qw-39" value="" style="endArrow=classic;html=1;rounded=0;" edge="1" parent="17Se1o1GfbrU2LIGd_qw-42">
          <mxGeometry width="50" height="50" relative="1" as="geometry">
            <mxPoint x="390.43" y="140" as="sourcePoint" />
            <mxPoint x="510.43" y="50" as="targetPoint" />
          </mxGeometry>
        </mxCell>
        <mxCell id="17Se1o1GfbrU2LIGd_qw-40" value="" style="endArrow=classic;html=1;rounded=0;" edge="1" parent="17Se1o1GfbrU2LIGd_qw-42">
          <mxGeometry width="50" height="50" relative="1" as="geometry">
            <mxPoint x="510.43" y="70" as="sourcePoint" />
            <mxPoint x="410" y="150" as="targetPoint" />
          </mxGeometry>
        </mxCell>
        <mxCell id="17Se1o1GfbrU2LIGd_qw-41" value="Angular Application" style="text;html=1;strokeColor=none;fillColor=none;align=center;verticalAlign=middle;whiteSpace=wrap;rounded=0;" vertex="1" parent="17Se1o1GfbrU2LIGd_qw-42">
          <mxGeometry x="529.4300000000001" width="60" height="30" as="geometry" />
        </mxCell>
      </root>
    </mxGraphModel>
  </diagram>
</mxfile>
